<svg id="Layer_1" data-name="Layer 1" xmlns="http://www.w3.org/2000/svg" viewBox="0 0 15.83 24.81"><defs><style>.cls-1{fill:#fff;}</style></defs><g id="Group_755" data-name="Group 755"><path id="Path_650" data-name="Path 650" class="cls-1" d="M22.42,10.85a.76.76,0,0,1,.73.8.37.37,0,0,1,0,.11c0,.45,0,.89,0,1.33,0,.19-.11.49-.24.52-.54.14-.47.47-.46.8s0,.48,0,.72a.47.47,0,0,0,.35.55h0a.64.64,0,0,1,.34.48c0,.95,0,1.91,0,2.86a.56.56,0,0,1-.28.46c-.47.12-.43.41-.42.72a2.83,2.83,0,0,1-1.61,2.56,2.91,2.91,0,0,0-1.31,2.15,12.47,12.47,0,0,0-.12,1.73c0,.63-.35,1-1.07,1q-3.35,0-6.68,0c-.75,0-1.08-.33-1.08-1a4.73,4.73,0,0,0-.85-3.28A2.34,2.34,0,0,0,9,22.77a2.69,2.69,0,0,1-1.7-2.45q0-5.14,0-10.28A2.39,2.39,0,0,1,8.79,7.79a2.79,2.79,0,0,0,1.58-2.08,7.61,7.61,0,0,0,.15-1.78c0-.8.35-1.12,1.28-1.12q3.16,0,6.33,0c.9,0,1.25.32,1.24,1.09a4.76,4.76,0,0,0,.91,3.32,1.22,1.22,0,0,0,.38.37,2.78,2.78,0,0,1,1.76,2.94C22.41,10.62,22.42,10.7,22.42,10.85ZM8.6,15.2c0,1.67,0,3.34,0,5A1.76,1.76,0,0,0,10.33,22h.27q4.31,0,8.61,0c1.31,0,2.06-.7,2.06-1.85V10.33c0-1.25-.73-1.9-2.16-1.9H10.73c-1.42,0-2.13.64-2.13,1.86Z" transform="translate(-7.32 -2.81)"/></g></svg>